<?xml version="1.0" encoding="UTF-8" standalone="no"?>
<!-- Created with Inkscape (http://www.inkscape.org/) -->

<svg
   xmlns:dc="http://purl.org/dc/elements/1.1/"
   xmlns:cc="http://creativecommons.org/ns#"
   xmlns:rdf="http://www.w3.org/1999/02/22-rdf-syntax-ns#"
   xmlns:svg="http://www.w3.org/2000/svg"
   xmlns="http://www.w3.org/2000/svg"
   xmlns:sodipodi="http://sodipodi.sourceforge.net/DTD/sodipodi-0.dtd"
   xmlns:inkscape="http://www.inkscape.org/namespaces/inkscape"
   width="1024"
   height="500"
   viewBox="0 0 270.93333 132.29167"
   version="1.1"
   id="svg8"
   inkscape:version="0.92.2 5c3e80d, 2017-08-06"
   sodipodi:docname="feature.svg">
  <defs
     id="defs2">
    <filter
       inkscape:collect="always"
       style="color-interpolation-filters:sRGB"
       id="filter967"
       x="-0.052326329"
       width="1.1046526"
       y="-0.044334438"
       height="1.0886689">
      <feGaussianBlur
         inkscape:collect="always"
         stdDeviation="0.64513997"
         id="feGaussianBlur969" />
    </filter>
  </defs>
  <sodipodi:namedview
     id="base"
     pagecolor="#ffffff"
     bordercolor="#666666"
     borderopacity="1.0"
     inkscape:pageopacity="0.0"
     inkscape:pageshadow="2"
     inkscape:zoom="0.49497475"
     inkscape:cx="143.26834"
     inkscape:cy="211.74457"
     inkscape:document-units="px"
     inkscape:current-layer="layer1"
     showgrid="false"
     units="px"
     inkscape:window-width="1918"
     inkscape:window-height="689"
     inkscape:window-x="2560"
     inkscape:window-y="734"
     inkscape:window-maximized="0" />
  <metadata
     id="metadata5">
    <rdf:RDF>
      <cc:Work
         rdf:about="">
        <dc:format>image/svg+xml</dc:format>
        <dc:type
           rdf:resource="http://purl.org/dc/dcmitype/StillImage" />
        <dc:title></dc:title>
      </cc:Work>
    </rdf:RDF>
  </metadata>
  <g
     inkscape:label="Ebene 1"
     inkscape:groupmode="layer"
     id="layer1"
     transform="translate(0,-164.70832)">
    <rect
       style="fill:#8bc34a;fill-opacity:1;stroke:none;stroke-width:0.26458335;stroke-opacity:1"
       id="rect815"
       width="270.93335"
       height="132.29167"
       x="-7.1054274e-15"
       y="164.70831" />
    <ellipse
       style="fill:#8bc34a;fill-opacity:1;stroke:#000000;stroke-width:0;stroke-miterlimit:4;stroke-dasharray:none;stroke-opacity:0"
       id="path4137"
       cx="135.46666"
       cy="230.85402"
       rx="46.566666"
       ry="46.566658" />
    <path
       style="fill:#ffffff;fill-opacity:0.19607843;stroke:#000000;stroke-width:0;stroke-miterlimit:4;stroke-dasharray:none;stroke-opacity:0"
       d="m 135.46673,184.28748 a 46.566668,46.56562 0 0 0 -46.566682,46.56562 46.566668,46.56562 0 0 0 0.012,0.31042 46.566668,46.56562 0 0 1 46.554282,-46.3466 46.566668,46.56562 0 0 1 46.55426,46.25556 46.566668,46.56562 0 0 0 0.012,-0.21922 46.566668,46.56562 0 0 0 -46.56666,-46.56562 z"
       id="path4137-0"
       inkscape:connector-curvature="0" />
    <path
       inkscape:connector-curvature="0"
       style="fill:#000000;fill-opacity:0.19607843;stroke:#000000;stroke-width:0;stroke-miterlimit:4;stroke-dasharray:none;stroke-opacity:0"
       d="m 135.46673,277.42082 a 46.566668,46.566656 0 0 1 -46.566682,-46.56668 46.566668,46.566656 0 0 1 0.012,-0.3104 46.566668,46.566656 0 0 0 46.554202,46.34764 46.566668,46.566656 0 0 0 46.55426,-46.2566 46.566668,46.566656 0 0 1 0.012,0.2192 46.566668,46.566656 0 0 1 -46.56666,46.56668 z"
       id="path4137-0-3" />
    <g
       id="g869-6-2"
       transform="matrix(2.1166678,0,0,2.1166678,-48.245016,-2041.2694)"
       style="fill:#000000;fill-opacity:0.2;filter:url(#filter967)">
      <path
         inkscape:connector-curvature="0"
         id="path4-5-2-61"
         d="m 86.792903,1055.2097 -2.279297,3.9609 c -0.253333,0.4001 -0.386719,0.8665 -0.386719,1.3731 0,1.4667 1.199349,2.666 2.666016,2.666 z m -1.333984,9.334 v 2.666 h -6.666016 c -2.213333,0 -4,1.7867 -4,4 v 2.0547 c 0,1.44 1.173281,2.6133 2.613281,2.6133 0.693333,0 1.359844,-0.2666 1.839844,-0.7598 l 2.853516,-2.8418 2.839843,2.8418 c 0.494757,0.4947 1.174899,0.7397 1.853516,0.7383 v -11.3125 z m -3.345704,10.5605 -1.453124,1.4258 c -0.866667,0.8667 -2.02724,1.3477 -3.253907,1.3477 -0.973333,0 -1.866614,-0.3078 -2.613281,-0.8145 v 6.1465 c 0,0.7333 0.600651,1.334 1.333984,1.334 h 10.666016 v -6.711 c -1.191049,0 -2.383465,-0.4323 -3.253906,-1.3027 z"
         style="fill:#000000;fill-opacity:0.2;stroke-width:1.33333337" />
      <path
         id="path4-6-3-9-8"
         d="m 86.792903,1055.2097 2.279297,3.9609 c 0.253333,0.4001 0.386719,0.8665 0.386719,1.3731 0,1.4667 -1.199349,2.666 -2.666016,2.666 z m 1.333984,9.334 v 2.666 h 6.666016 c 2.213333,0 4,1.7867 4,4 v 2.0547 c 0,1.44 -1.173281,2.6133 -2.613281,2.6133 -0.693333,0 -1.359844,-0.2666 -1.839844,-0.7598 l -2.853516,-2.8418 -2.839843,2.8418 c -0.494757,0.4947 -1.174899,0.7397 -1.853516,0.7383 v -11.3125 z m 3.345704,10.5605 1.453124,1.4258 c 0.866667,0.8667 2.02724,1.3477 3.253907,1.3477 0.973333,0 1.866614,-0.3078 2.613281,-0.8145 v 6.1465 c 0,0.7333 -0.600651,1.334 -1.333984,1.334 H 86.792903 v -6.711 c 1.191049,0 2.383465,-0.4323 3.253906,-1.3027 z"
         style="fill:#000000;fill-opacity:0.2;stroke-width:1.33333337"
         inkscape:connector-curvature="0" />
      <path
         style="fill:#000000;fill-opacity:0.2"
         id="path4-67-5-1-7"
         d="m 92.382903,1087.3037 -4.17,-4.17 -1.42,1.41 5.59,5.59 11.999997,-12 -1.41,-1.41 z"
         inkscape:connector-curvature="0" />
    </g>
    <path
       style="fill:#f4ffff;fill-opacity:1;stroke-width:2.82222366"
       d="m 135.46673,194.3755 -4.82452,8.3839 c -0.53626,0.8469 -0.81854,1.83412 -0.81854,2.90644 0,3.10446 2.5386,5.643 5.64306,5.643 z m -2.82362,19.75698 v 5.64304 h -14.10974 c -4.68488,0 -8.46668,3.78184 -8.46668,8.46664 v 4.34912 c 0,3.04798 2.48346,5.53154 5.53144,5.53154 1.46758,0 2.87836,-0.56402 3.89436,-1.60826 l 6.03994,-6.01514 6.01102,6.01514 c 1.04726,1.04712 2.48686,1.5657 3.92328,1.56274 v -23.94482 z m -7.08176,22.35304 -3.07574,3.01798 c -1.83446,1.8345 -4.291,2.85268 -6.88748,2.85268 -2.0602,0 -3.95098,-0.6512 -5.53144,-1.7241 v 13.01006 c 0,1.55218 1.27142,2.82372 2.82364,2.82372 h 22.5764 V 242.2609 c -2.52106,0 -5.045,-0.91506 -6.88742,-2.7574 z"
       id="path4"
       inkscape:connector-curvature="0" />
    <path
       inkscape:connector-curvature="0"
       style="fill:#c5e1a5;fill-opacity:1;stroke-width:2.82222366"
       d="m 135.46673,194.3755 4.82452,8.3839 c 0.53622,0.8469 0.81854,1.83412 0.81854,2.90644 0,3.10446 -2.53864,5.643 -5.64306,5.643 z m 2.82358,19.75698 v 5.64304 h 14.10976 c 4.6849,0 8.46666,3.78184 8.46666,8.46664 v 4.34912 c 0,3.04798 -2.48342,5.53154 -5.53146,5.53154 -1.46754,0 -2.87832,-0.56402 -3.8943,-1.60826 l -6.04,-6.01514 -6.01096,6.01514 c -1.04726,1.04712 -2.48688,1.5657 -3.92328,1.56274 v -23.94482 z m 7.08174,22.35304 3.0758,3.01798 c 1.83446,1.8345 4.29098,2.85268 6.88742,2.85268 2.06022,0 3.951,-0.6512 5.53146,-1.7241 v 13.01006 c 0,1.55218 -1.27138,2.82372 -2.8236,2.82372 h -22.5764 V 242.2609 c 2.52106,0 5.045,-0.91506 6.88742,-2.7574 z"
       id="path4-6" />
    <path
       inkscape:connector-curvature="0"
       d="m 147.29887,262.30784 -8.82648,-8.8265 -3.00566,2.98452 11.83214,11.83216 25.40004,-25.4 -2.9845,-2.9845 z"
       id="path4-67"
       style="fill:#ffffff;fill-opacity:1;stroke-width:2.11666775" />
    <path
       inkscape:connector-curvature="0"
       style="fill:#000000;fill-opacity:0.2;stroke-width:2.82222366"
       d="m 129.84431,205.34752 c -0.004,0.1072 -0.02,0.2096 -0.02,0.3184 0,3.10446 2.53864,5.643 5.6431,5.643 3.10442,0 5.64306,-2.53854 5.64306,-5.643 0,-0.1088 -0.016,-0.2112 -0.02,-0.3184 -0.1144,3.0055 -2.59016,5.43224 -5.62242,5.43224 -3.03222,0 -5.5081,-2.42674 -5.62238,-5.43224 z m -4.31188,24.62278 -6.03994,6.01512 c -1.016,1.04394 -2.42678,1.60818 -3.89436,1.60818 -3.04798,0 -5.53144,-2.48346 -5.53144,-5.53144 v 0.5288 c 0,3.04798 2.48346,5.53154 5.53144,5.53154 1.46758,0 2.87836,-0.56402 3.89436,-1.60826 l 6.03994,-6.01514 6.01102,6.01514 c 1.04722,1.04712 2.48686,1.5657 3.92328,1.56274 1.4364,0 2.87602,-0.51522 3.92328,-1.56274 l 6.01096,-6.01514 6.04,6.01514 c 1.01598,1.044 2.42676,1.60826 3.8943,1.60826 3.04804,0 5.53146,-2.48356 5.53146,-5.53154 v -0.5288 c 0,3.04798 -2.48342,5.53144 -5.53146,5.53144 -1.46754,0 -2.87832,-0.564 -3.8943,-1.60818 l -6.04,-6.01512 -6.01096,6.01512 c -1.04726,1.04714 -2.48688,1.56274 -3.92328,1.56274 -1.43642,0.002 -2.87606,-0.516 -3.92328,-1.56274 z m 46.90572,12.66284 -12.24114,12.24102 c -0.1188,0.1448 -0.24402,0.2704 -0.38882,0.3888 l -12.50568,12.5057 -11.83598,-11.83184 h -22.5764 c -1.55222,0 -2.8236,-1.27146 -2.8236,-2.82362 v 0.52878 c 0,1.55218 1.27138,2.82364 2.8236,2.82364 h 22.5764 l 11.83598,11.83184 12.50568,-12.50568 c 0.1444,-0.1184 0.27002,-0.244 0.38882,-0.38882 l 12.5057,-12.50526 z m -30.97696,13.30352 0.5292,0.5288 h 10.6288 l 0.52922,-0.5288 z"
       id="path4-5-2" />
    <path
       inkscape:connector-curvature="0"
       style="fill:#ffffff;fill-opacity:0.2;stroke-width:2.82222366"
       d="m 135.46673,194.37558 -4.82452,8.3839 c -0.53626,0.8469 -0.81854,1.83404 -0.81854,2.90636 0,0.072 0.02,0.1392 0.02,0.2112 0.0512,-0.94768 0.31602,-1.82682 0.7979,-2.58794 l 4.82444,-8.384 4.82452,8.384 c 0.48194,0.7608 0.74674,1.64026 0.79794,2.58794 0.002,-0.072 0.02,-0.1384 0.02,-0.2112 0,-1.07232 -0.2824,-2.05946 -0.81858,-2.90636 z m -2.82362,19.7569 v 0.5288 h 2.82362 2.82358 v -0.5288 h -2.82358 z m -14.10974,5.64312 c -4.68488,0 -8.46668,3.78184 -8.46668,8.46664 v 0.5288 c 0,-4.68478 3.7818,-8.46664 8.46668,-8.46664 h 14.10974 v -0.5288 z m 19.75694,0 v 0.5288 h 14.10976 c 4.6849,0 8.46666,3.78186 8.46666,8.46664 v -0.5288 c 0,-4.6848 -3.78176,-8.46664 -8.46666,-8.46664 z m -12.72896,16.71008 -3.07574,3.01782 c -1.83446,1.83458 -4.291,2.8526 -6.88748,2.8526 -2.0602,0 -3.95098,-0.6512 -5.53144,-1.72394 v 0.5288 c 1.58046,1.0725 3.47124,1.72394 5.53144,1.72394 2.59648,0 5.05302,-1.018 6.88748,-2.85258 l 3.07574,-3.01792 3.01796,3.01792 c 1.84242,1.84234 4.36636,2.75746 6.88742,2.75746 2.52106,0 5.045,-0.91512 6.88742,-2.75746 l 3.0179,-3.01792 3.0758,3.01792 c 1.83446,1.83458 4.29098,2.85258 6.88742,2.85258 2.06022,0 3.951,-0.6512 5.53146,-1.72394 v -0.5288 c -1.58046,1.07258 -3.47124,1.72394 -5.53146,1.72394 -2.59644,0 -5.05296,-1.01802 -6.88742,-2.8526 l -3.0758,-3.01782 -3.0179,3.01782 c -1.84242,1.84242 -4.36636,2.75756 -6.88742,2.75756 -2.52106,0 -5.045,-0.91514 -6.88742,-2.75756 z m 44.15654,3.42712 -8.85116,8.84288 v 0.5288 l 8.85116,-8.84288 2.72026,2.72022 0.2644,-0.2648 z m -28.2567,17.08214 5.84148,5.84154 5.84566,-5.84154 h -0.52922 l -5.31644,5.31242 -5.31236,-5.31242 z"
       id="path4-5-2-2" />
  </g>
</svg>
