<?xml version="1.0" encoding="UTF-8" standalone="no"?>
<!-- Created with Inkscape (http://www.inkscape.org/) -->

<svg
   xmlns:dc="http://purl.org/dc/elements/1.1/"
   xmlns:cc="http://creativecommons.org/ns#"
   xmlns:rdf="http://www.w3.org/1999/02/22-rdf-syntax-ns#"
   xmlns:svg="http://www.w3.org/2000/svg"
   xmlns="http://www.w3.org/2000/svg"
   xmlns:sodipodi="http://sodipodi.sourceforge.net/DTD/sodipodi-0.dtd"
   xmlns:inkscape="http://www.inkscape.org/namespaces/inkscape"
   width="48"
   height="48"
   viewBox="0 0 48 48"
   id="svg4741"
   version="1.1"
   inkscape:version="0.92.2 5c3e80d, 2017-08-06"
   sodipodi:docname="ic_launcher.svg">
  <defs
     id="defs4743">
    <filter
       inkscape:collect="always"
       style="color-interpolation-filters:sRGB"
       id="filter967"
       x="-0.052326329"
       width="1.1046527"
       y="-0.044334438"
       height="1.0886689">
      <feGaussianBlur
         inkscape:collect="always"
         stdDeviation="0.64513997"
         id="feGaussianBlur969" />
    </filter>
  </defs>
  <sodipodi:namedview
     id="base"
     pagecolor="#ffffff"
     bordercolor="#666666"
     borderopacity="1.0"
     inkscape:pageopacity="0.0"
     inkscape:pageshadow="2"
     inkscape:zoom="22.4"
     inkscape:cx="64.526354"
     inkscape:cy="20.879363"
     inkscape:document-units="px"
     inkscape:current-layer="layer1"
     showgrid="false"
     units="px"
     inkscape:window-width="3838"
     inkscape:window-height="2122"
     inkscape:window-x="1920"
     inkscape:window-y="18"
     inkscape:window-maximized="0"
     scale-x="1" />
  <metadata
     id="metadata4746">
    <rdf:RDF>
      <cc:Work
         rdf:about="">
        <dc:format>image/svg+xml</dc:format>
        <dc:type
           rdf:resource="http://purl.org/dc/dcmitype/StillImage" />
        <dc:title />
      </cc:Work>
    </rdf:RDF>
  </metadata>
  <g
     inkscape:label="Ebene 1"
     inkscape:groupmode="layer"
     id="layer1"
     transform="translate(0,-1007.5622)">
    <ellipse
       style="fill:#8bc34a;fill-opacity:1;stroke:#000000;stroke-width:0;stroke-miterlimit:4;stroke-dasharray:none;stroke-opacity:0"
       id="path4137"
       cx="23.99999"
       cy="1031.4622"
       rx="21.999989"
       ry="21.999985" />
    <path
       style="fill:#ffffff;fill-opacity:0.19607843;stroke:#000000;stroke-width:0;stroke-miterlimit:4;stroke-dasharray:none;stroke-opacity:0"
       d="m 24.000001,1009.4622 a 21.999989,21.999494 0 0 0 -22,21.9995 21.999989,21.999494 0 0 0 0.0059,0.1465 21.999989,21.999494 0 0 1 21.994141,-21.896 21.999989,21.999494 0 0 1 21.994141,21.853 21.999989,21.999494 0 0 0 0.0059,-0.1035 21.999989,21.999494 0 0 0 -22,-21.9995 z"
       id="path4137-0"
       inkscape:connector-curvature="0" />
    <path
       inkscape:connector-curvature="0"
       style="fill:#000000;fill-opacity:0.19607843;stroke:#000000;stroke-width:0;stroke-miterlimit:4;stroke-dasharray:none;stroke-opacity:0"
       d="m 24.000001,1053.4622 a 21.999989,21.999985 0 0 1 -22,-22 21.999989,21.999985 0 0 1 0.0059,-0.1465 21.999989,21.999985 0 0 0 21.9941,21.8965 21.999989,21.999985 0 0 0 21.994141,-21.8535 21.999989,21.999985 0 0 1 0.0059,0.1035 21.999989,21.999985 0 0 1 -22,22 z"
       id="path4137-0-3" />
    <g
       id="g869-6-2"
       transform="translate(-62.792903,-41.9815)"
       style="fill:#000000;fill-opacity:0.2;filter:url(#filter967)">
      <path
         inkscape:connector-curvature="0"
         id="path4-5-2-61"
         d="m 86.792903,1055.2097 -2.279297,3.9609 c -0.253333,0.4001 -0.386719,0.8665 -0.386719,1.3731 0,1.4667 1.199349,2.666 2.666016,2.666 z m -1.333984,9.334 v 2.666 h -6.666016 c -2.213333,0 -4,1.7867 -4,4 v 2.0547 c 0,1.44 1.173281,2.6133 2.613281,2.6133 0.693333,0 1.359844,-0.2666 1.839844,-0.7598 l 2.853516,-2.8418 2.839843,2.8418 c 0.494757,0.4947 1.174899,0.7397 1.853516,0.7383 v -11.3125 z m -3.345704,10.5605 -1.453124,1.4258 c -0.866667,0.8667 -2.02724,1.3477 -3.253907,1.3477 -0.973333,0 -1.866614,-0.3078 -2.613281,-0.8145 v 6.1465 c 0,0.7333 0.600651,1.334 1.333984,1.334 h 10.666016 v -6.711 c -1.191049,0 -2.383465,-0.4323 -3.253906,-1.3027 z"
         style="fill:#000000;fill-opacity:0.2;stroke-width:1.33333337" />
      <path
         id="path4-6-3-9-8"
         d="m 86.792903,1055.2097 2.279297,3.9609 c 0.253333,0.4001 0.386719,0.8665 0.386719,1.3731 0,1.4667 -1.199349,2.666 -2.666016,2.666 z m 1.333984,9.334 v 2.666 h 6.666016 c 2.213333,0 4,1.7867 4,4 v 2.0547 c 0,1.44 -1.173281,2.6133 -2.613281,2.6133 -0.693333,0 -1.359844,-0.2666 -1.839844,-0.7598 l -2.853516,-2.8418 -2.839843,2.8418 c -0.494757,0.4947 -1.174899,0.7397 -1.853516,0.7383 v -11.3125 z m 3.345704,10.5605 1.453124,1.4258 c 0.866667,0.8667 2.02724,1.3477 3.253907,1.3477 0.973333,0 1.866614,-0.3078 2.613281,-0.8145 v 6.1465 c 0,0.7333 -0.600651,1.334 -1.333984,1.334 H 86.792903 v -6.711 c 1.191049,0 2.383465,-0.4323 3.253906,-1.3027 z"
         style="fill:#000000;fill-opacity:0.2;stroke-width:1.33333337"
         inkscape:connector-curvature="0" />
      <path
         style="fill:#000000;fill-opacity:0.2"
         id="path4-67-5-1-7"
         d="m 92.382903,1087.3037 -4.17,-4.17 -1.42,1.41 5.59,5.59 11.999997,-12 -1.41,-1.41 z"
         inkscape:connector-curvature="0" />
    </g>
    <path
       style="fill:#f4ffff;fill-opacity:1;stroke-width:1.33333337"
       d="m 24,1014.2282 -2.279297,3.9609 c -0.253333,0.4001 -0.386719,0.8665 -0.386719,1.3731 0,1.4667 1.199349,2.666 2.666016,2.666 z m -1.333984,9.334 v 2.666 H 16 c -2.213333,0 -4,1.7867 -4,4 v 2.0547 c 0,1.44 1.173281,2.6133 2.613281,2.6133 0.693333,0 1.359844,-0.2666 1.839844,-0.7598 l 2.853516,-2.8418 2.839843,2.8418 c 0.494757,0.4947 1.174899,0.7397 1.853516,0.7383 v -11.3125 z m -3.345704,10.5605 -1.453124,1.4258 c -0.866667,0.8667 -2.02724,1.3477 -3.253907,1.3477 -0.973333,0 -1.866614,-0.3078 -2.613281,-0.8145 v 6.1465 c 0,0.7333 0.600651,1.334 1.333984,1.334 H 24 v -6.711 c -1.191049,0 -2.383465,-0.4323 -3.253906,-1.3027 z"
       id="path4"
       inkscape:connector-curvature="0" />
    <path
       inkscape:connector-curvature="0"
       style="fill:#c5e1a5;fill-opacity:1;stroke-width:1.33333337"
       d="m 24,1014.2282 2.279297,3.9609 c 0.253333,0.4001 0.386719,0.8665 0.386719,1.3731 0,1.4667 -1.199349,2.666 -2.666016,2.666 z m 1.333984,9.334 v 2.666 H 32 c 2.213333,0 4,1.7867 4,4 v 2.0547 c 0,1.44 -1.173281,2.6133 -2.613281,2.6133 -0.693333,0 -1.359844,-0.2666 -1.839844,-0.7598 l -2.853516,-2.8418 -2.839843,2.8418 c -0.494757,0.4947 -1.174899,0.7397 -1.853516,0.7383 v -11.3125 z m 3.345704,10.5605 1.453124,1.4258 c 0.866667,0.8667 2.02724,1.3477 3.253907,1.3477 0.973333,0 1.866614,-0.3078 2.613281,-0.8145 v 6.1465 c 0,0.7333 -0.600651,1.334 -1.333984,1.334 H 24 v -6.711 c 1.191049,0 2.383465,-0.4323 3.253906,-1.3027 z"
       id="path4-6" />
    <path
       inkscape:connector-curvature="0"
       d="m 29.59,1046.3222 -4.17,-4.17 -1.42,1.41 5.59,5.59 12,-12 -1.41,-1.41 z"
       id="path4-67"
       style="fill:#ffffff;fill-opacity:1" />
    <path
       style="fill:#000000;fill-opacity:0.2;stroke-width:1.33333337"
       d="M 21.34375 11.849609 C 21.341027 11.900072 21.333984 11.948686 21.333984 12 C 21.333984 13.4667 22.53333 14.666016 24 14.666016 C 25.46667 14.666016 26.666016 13.4667 26.666016 12 C 26.666016 11.948686 26.658973 11.900072 26.65625 11.849609 C 26.602254 13.269558 25.43256 14.416016 24 14.416016 C 22.56744 14.416016 21.397746 13.269558 21.34375 11.849609 z M 19.306641 23.482422 L 16.453125 26.324219 C 15.973125 26.817419 15.306611 27.083984 14.613281 27.083984 C 13.173281 27.083984 12 25.910703 12 24.470703 L 12 24.720703 C 12 26.160703 13.173281 27.333984 14.613281 27.333984 C 15.306611 27.333984 15.973125 27.067419 16.453125 26.574219 L 19.306641 23.732422 L 22.146484 26.574219 C 22.641234 27.068919 23.32138 27.3139 24 27.3125 C 24.67862 27.3125 25.358756 27.068919 25.853516 26.574219 L 28.693359 23.732422 L 31.546875 26.574219 C 32.026875 27.067419 32.693389 27.333984 33.386719 27.333984 C 34.826719 27.333984 36 26.160703 36 24.720703 L 36 24.470703 C 36 25.910703 34.826719 27.083984 33.386719 27.083984 C 32.693389 27.083984 32.026875 26.817419 31.546875 26.324219 L 28.693359 23.482422 L 25.853516 26.324219 C 25.358756 26.818919 24.67862 27.0625 24 27.0625 C 23.32138 27.0639 22.641234 26.818919 22.146484 26.324219 L 19.306641 23.482422 z M 41.466797 29.464844 L 35.683594 35.248047 C 35.627514 35.316347 35.5683 35.375641 35.5 35.431641 L 29.591797 41.339844 L 24 35.75 L 13.333984 35.75 C 12.600654 35.75 12 35.149316 12 34.416016 L 12 34.666016 C 12 35.399316 12.600654 36 13.333984 36 L 24 36 L 29.591797 41.589844 L 35.5 35.681641 C 35.5683 35.625641 35.627514 35.566347 35.683594 35.498047 L 41.591797 29.589844 L 41.466797 29.464844 z M 26.832031 35.75 L 27.082031 36 L 32.103516 36 L 32.353516 35.75 L 26.832031 35.75 z "
       transform="translate(0,1007.5622)"
       id="path4-5-2" />
    <path
       style="fill:#ffffff;fill-opacity:0.2;stroke-width:1.33333337"
       d="M 24 6.6660156 L 21.720703 10.626953 C 21.467373 11.027053 21.333984 11.4934 21.333984 12 C 21.333984 12.034111 21.342464 12.0658 21.34375 12.099609 C 21.36791 11.651883 21.493033 11.236526 21.720703 10.876953 L 24 6.9160156 L 26.279297 10.876953 C 26.506967 11.236526 26.632089 11.651883 26.65625 12.099609 C 26.657536 12.0658 26.666016 12.034111 26.666016 12 C 26.666016 11.4934 26.532627 11.027053 26.279297 10.626953 L 24 6.6660156 z M 22.666016 16 L 22.666016 16.25 L 24 16.25 L 25.333984 16.25 L 25.333984 16 L 24 16 L 22.666016 16 z M 16 18.666016 C 13.78667 18.666016 12 20.452716 12 22.666016 L 12 22.916016 C 12 20.702716 13.78667 18.916016 16 18.916016 L 22.666016 18.916016 L 22.666016 18.666016 L 16 18.666016 z M 25.333984 18.666016 L 25.333984 18.916016 L 32 18.916016 C 34.21333 18.916016 36 20.702716 36 22.916016 L 36 22.666016 C 36 20.452716 34.21333 18.666016 32 18.666016 L 25.333984 18.666016 z M 19.320312 26.560547 L 17.867188 27.986328 C 17.000518 28.853028 15.839951 29.333984 14.613281 29.333984 C 13.639951 29.333984 12.74666 29.026231 12 28.519531 L 12 28.769531 C 12.74666 29.276231 13.639951 29.583984 14.613281 29.583984 C 15.839951 29.583984 17.000518 29.103028 17.867188 28.236328 L 19.320312 26.810547 L 20.746094 28.236328 C 21.616544 29.106728 22.80895 29.539062 24 29.539062 C 25.19105 29.539062 26.383466 29.106728 27.253906 28.236328 L 28.679688 26.810547 L 30.132812 28.236328 C 30.999483 29.103028 32.160049 29.583984 33.386719 29.583984 C 34.360049 29.583984 35.25333 29.276231 36 28.769531 L 36 28.519531 C 35.25333 29.026231 34.360049 29.333984 33.386719 29.333984 C 32.160049 29.333984 30.999483 28.853028 30.132812 27.986328 L 28.679688 26.560547 L 27.253906 27.986328 C 26.383466 28.856728 25.19105 29.289062 24 29.289062 C 22.80895 29.289062 21.616544 28.856728 20.746094 27.986328 L 19.320312 26.560547 z M 40.181641 28.179688 L 36 32.357422 L 36 32.607422 L 40.181641 28.429688 L 41.466797 29.714844 L 41.591797 29.589844 L 40.181641 28.179688 z M 26.832031 36.25 L 29.591797 39.009766 L 32.353516 36.25 L 32.103516 36.25 L 29.591797 38.759766 L 27.082031 36.25 L 26.832031 36.25 z "
       transform="translate(0,1007.5622)"
       id="path4-5-2-2" />
  </g>
</svg>
