<?xml version="1.0" encoding="UTF-8" standalone="no"?>
<!-- Created with Inkscape (http://www.inkscape.org/) -->

<svg
   xmlns:dc="http://purl.org/dc/elements/1.1/"
   xmlns:cc="http://creativecommons.org/ns#"
   xmlns:rdf="http://www.w3.org/1999/02/22-rdf-syntax-ns#"
   xmlns:svg="http://www.w3.org/2000/svg"
   xmlns="http://www.w3.org/2000/svg"
   xmlns:sodipodi="http://sodipodi.sourceforge.net/DTD/sodipodi-0.dtd"
   xmlns:inkscape="http://www.inkscape.org/namespaces/inkscape"
   width="108"
   height="108"
   viewBox="0 0 108 108"
   id="svg4741"
   version="1.1"
   inkscape:version="0.92.2 5c3e80d, 2017-08-06"
   sodipodi:docname="ic_launcher_foreground.svg">
  <defs
     id="defs4743">
    <filter
       inkscape:collect="always"
       style="color-interpolation-filters:sRGB"
       id="filter967"
       x="-0.052326329"
       width="1.1046526"
       y="-0.044334438"
       height="1.0886689">
      <feGaussianBlur
         inkscape:collect="always"
         stdDeviation="0.64513997"
         id="feGaussianBlur969" />
    </filter>
  </defs>
  <sodipodi:namedview
     id="base"
     pagecolor="#ffffff"
     bordercolor="#666666"
     borderopacity="1.0"
     inkscape:pageopacity="0.0"
     inkscape:pageshadow="2"
     inkscape:zoom="2.8"
     inkscape:cx="77.523567"
     inkscape:cy="40.575743"
     inkscape:document-units="px"
     inkscape:current-layer="layer1"
     showgrid="false"
     units="px"
     inkscape:window-width="1918"
     inkscape:window-height="1045"
     inkscape:window-x="2560"
     inkscape:window-y="20"
     inkscape:window-maximized="0"
     scale-x="1" />
  <metadata
     id="metadata4746">
    <rdf:RDF>
      <cc:Work
         rdf:about="">
        <dc:format>image/svg+xml</dc:format>
        <dc:type
           rdf:resource="http://purl.org/dc/dcmitype/StillImage" />
        <dc:title></dc:title>
      </cc:Work>
    </rdf:RDF>
  </metadata>
  <g
     inkscape:label="Ebene 1"
     inkscape:groupmode="layer"
     id="layer1"
     transform="translate(0,-947.5622)">
    <g
       id="g869-6-2"
       transform="matrix(1.5000152,0,0,1.5000152,-76.189964,-608.77045)"
       style="fill:#000000;fill-opacity:0.2;filter:url(#filter967)">
      <path
         inkscape:connector-curvature="0"
         id="path4-5-2-61"
         d="m 86.792903,1055.2097 -2.279297,3.9609 c -0.253333,0.4001 -0.386719,0.8665 -0.386719,1.3731 0,1.4667 1.199349,2.666 2.666016,2.666 z m -1.333984,9.334 v 2.666 h -6.666016 c -2.213333,0 -4,1.7867 -4,4 v 2.0547 c 0,1.44 1.173281,2.6133 2.613281,2.6133 0.693333,0 1.359844,-0.2666 1.839844,-0.7598 l 2.853516,-2.8418 2.839843,2.8418 c 0.494757,0.4947 1.174899,0.7397 1.853516,0.7383 v -11.3125 z m -3.345704,10.5605 -1.453124,1.4258 c -0.866667,0.8667 -2.02724,1.3477 -3.253907,1.3477 -0.973333,0 -1.866614,-0.3078 -2.613281,-0.8145 v 6.1465 c 0,0.7333 0.600651,1.334 1.333984,1.334 h 10.666016 v -6.711 c -1.191049,0 -2.383465,-0.4323 -3.253906,-1.3027 z"
         style="fill:#000000;fill-opacity:0.2;stroke-width:1.33333337" />
      <path
         id="path4-6-3-9-8"
         d="m 86.792903,1055.2097 2.279297,3.9609 c 0.253333,0.4001 0.386719,0.8665 0.386719,1.3731 0,1.4667 -1.199349,2.666 -2.666016,2.666 z m 1.333984,9.334 v 2.666 h 6.666016 c 2.213333,0 4,1.7867 4,4 v 2.0547 c 0,1.44 -1.173281,2.6133 -2.613281,2.6133 -0.693333,0 -1.359844,-0.2666 -1.839844,-0.7598 l -2.853516,-2.8418 -2.839843,2.8418 c -0.494757,0.4947 -1.174899,0.7397 -1.853516,0.7383 v -11.3125 z m 3.345704,10.5605 1.453124,1.4258 c 0.866667,0.8667 2.02724,1.3477 3.253907,1.3477 0.973333,0 1.866614,-0.3078 2.613281,-0.8145 v 6.1465 c 0,0.7333 -0.600651,1.334 -1.333984,1.334 H 86.792903 v -6.711 c 1.191049,0 2.383465,-0.4323 3.253906,-1.3027 z"
         style="fill:#000000;fill-opacity:0.2;stroke-width:1.33333337"
         inkscape:connector-curvature="0" />
      <path
         style="fill:#000000;fill-opacity:0.2"
         id="path4-67-5-1-7"
         d="m 92.382903,1087.3037 -4.17,-4.17 -1.42,1.41 5.59,5.59 11.999997,-12 -1.41,-1.41 z"
         inkscape:connector-curvature="0" />
    </g>
    <path
       style="fill:#f4ffff;fill-opacity:1;stroke-width:2.00002027"
       d="m 54.000711,975.56017 -3.41898,5.94141 c -0.380003,0.60022 -0.580085,1.29982 -0.580085,2.05972 0,2.2 1.799042,3.999 3.999065,3.999 z m -2.000996,14.00113 v 3.9991 h -9.999126 c -3.320033,0 -6.000061,2.6801 -6.000061,6 v 3.0821 c 0,2.16 1.75994,3.92 3.919962,3.92 1.04001,0 2.039786,-0.3999 2.759794,-1.1397 l 4.280317,-4.2627 4.259808,4.2627 c 0.742143,0.7421 1.762366,1.1096 2.780302,1.1075 v -16.969 z m -5.018607,15.8409 -2.179708,2.1388 c -1.300014,1.3 -3.040891,2.0215 -4.88091,2.0215 -1.460015,0 -2.79995,-0.4617 -3.919962,-1.2217 v 9.2198 c 0,1.1 0.900986,2.001 2.000997,2.001 h 15.999186 v -10.0666 c -1.786592,0 -3.575234,-0.6484 -4.880908,-1.954 z"
       id="path4"
       inkscape:connector-curvature="0" />
    <path
       inkscape:connector-curvature="0"
       style="fill:#c5e1a5;fill-opacity:1;stroke-width:2.00002027"
       d="m 54.000711,975.56017 3.41898,5.94141 c 0.380004,0.60022 0.580085,1.29982 0.580085,2.05972 0,2.2 -1.799042,3.999 -3.999065,3.999 z m 2.000996,14.00113 v 3.9991 h 9.999126 c 3.320033,0 6.000061,2.6801 6.000061,6 v 3.0821 c 0,2.16 -1.75994,3.92 -3.919962,3.92 -1.04001,0 -2.039786,-0.3999 -2.759794,-1.1397 l -4.280317,-4.2627 -4.259808,4.2627 c -0.742143,0.7421 -1.762366,1.1096 -2.780302,1.1075 v -16.969 z m 5.018607,15.8409 2.179708,2.1388 c 1.300014,1.3 3.040891,2.0215 4.88091,2.0215 1.460015,0 2.79995,-0.4617 3.919962,-1.2217 v 9.2198 c 0,1.1 -0.900986,2.001 -2.000997,2.001 H 54.000711 v -10.0666 c 1.786592,0 3.575234,-0.6484 4.880909,-1.954 z"
       id="path4-6" />
    <path
       inkscape:connector-curvature="0"
       d="m 62.385796,1023.7017 -6.255063,-6.2551 -2.130022,2.115 8.385085,8.3851 18.000183,-18.0002 -2.115022,-2.115 z"
       id="path4-67"
       style="fill:#ffffff;fill-opacity:1;stroke-width:1.50001526" />
    <path
       style="fill:#000000;fill-opacity:0.2;stroke-width:2.00002027"
       d="m 50.016296,983.3357 c -0.0041,0.076 -0.01465,0.1486 -0.01465,0.2256 0,2.2 1.799038,3.999 3.999065,3.999 2.200027,0 3.999065,-1.799 3.999065,-3.999 0,-0.077 -0.01056,-0.1499 -0.01465,-0.2256 -0.08099,2.1299 -1.835553,3.8496 -3.984415,3.8496 -2.148862,0 -3.903421,-1.7197 -3.984415,-3.8496 z m -3.055695,17.4494 -4.280317,4.2627 c -0.720008,0.7398 -1.719789,1.1397 -2.759794,1.1397 -2.160022,0 -3.919962,-1.76 -3.919962,-3.92 v 0.375 c 0,2.16 1.75994,3.92 3.919962,3.92 1.040005,0 2.039786,-0.3999 2.759794,-1.1397 l 4.280317,-4.2627 4.259808,4.2627 c 0.742132,0.7421 1.762362,1.1096 2.780302,1.1075 1.01794,0 2.038155,-0.3654 2.780302,-1.1075 l 4.259808,-4.2627 4.280317,4.2627 c 0.720008,0.7398 1.719789,1.1397 2.759794,1.1397 2.160022,0 3.919962,-1.76 3.919962,-3.92 v -0.375 c 0,2.16 -1.75994,3.92 -3.919962,3.92 -1.040005,0 -2.039786,-0.3999 -2.759794,-1.1397 l -4.280317,-4.2627 -4.259808,4.2627 c -0.742147,0.7421 -1.762362,1.1075 -2.780302,1.1075 -1.01794,0 -2.03817,-0.3654 -2.780302,-1.1075 z m 33.240571,8.9737 -8.674892,8.6749 c -0.08412,0.1024 -0.172943,0.1914 -0.275394,0.2754 l -8.862394,8.8624 -8.387781,-8.3849 H 38.001525 c -1.100006,0 -2.000997,-0.901 -2.000997,-2.001 v 0.375 c 0,1.1 0.900991,2.001 2.000997,2.001 h 15.999186 l 8.387781,8.3849 8.862394,-8.8624 c 0.102451,-0.084 0.191273,-0.1729 0.275394,-0.2754 l 8.862394,-8.8624 z m -21.952371,9.4278 0.375003,0.375 h 7.532304 l 0.375004,-0.375 z"
       id="path4-5-2"
       inkscape:connector-curvature="0" />
    <path
       style="fill:#ffffff;fill-opacity:0.2;stroke-width:2.00002027"
       d="m 54.000711,975.56019 -3.41898,5.94149 c -0.379999,0.60012 -0.580085,1.29972 -0.580085,2.05962 0,0.051 0.01272,0.099 0.01465,0.1494 0.03624,-0.6716 0.223926,-1.2947 0.565435,-1.83402 l 3.41898,-5.94148 3.41898,5.94148 c 0.341509,0.53932 0.529194,1.16242 0.565435,1.83402 0.0019,-0.051 0.01465,-0.098 0.01465,-0.1494 0,-0.7599 -0.200086,-1.4595 -0.580085,-2.05962 z m -2.000996,14.00111 v 0.375 h 2.000996 2.000996 v -0.375 h -2.000996 z m -9.999126,3.9991 c -3.320028,0 -6.000061,2.6801 -6.000061,6.0001 v 0.375 c 0,-3.32 2.680033,-6.0001 6.000061,-6.0001 h 9.999126 v -0.375 z m 14.001118,0 v 0.375 h 9.999126 c 3.320028,0 6.000061,2.6801 6.000061,6.0001 v -0.375 c 0,-3.32 -2.680033,-6.0001 -6.000061,-6.0001 z m -9.020599,11.8419 -2.179708,2.1387 c -1.300018,1.3001 -3.040887,2.0215 -4.88091,2.0215 -1.46001,0 -2.79996,-0.4616 -3.919962,-1.2217 v 0.375 c 1.120002,0.7601 2.459952,1.2217 3.919962,1.2217 1.840023,0 3.580892,-0.7214 4.88091,-2.0215 l 2.179708,-2.1387 2.138695,2.1387 c 1.305688,1.3056 3.094315,1.9541 4.880908,1.9541 1.786593,0 3.575235,-0.6485 4.880909,-1.9541 l 2.138694,-2.1387 2.179708,2.1387 c 1.30002,1.3001 3.040887,2.0215 4.88091,2.0215 1.46001,0 2.799945,-0.4616 3.919962,-1.2217 v -0.375 c -1.120017,0.7601 -2.459952,1.2217 -3.919962,1.2217 -1.840023,0 -3.58089,-0.7214 -4.88091,-2.0215 l -2.179708,-2.1387 -2.138694,2.1387 c -1.305674,1.3056 -3.094316,1.9541 -4.880909,1.9541 -1.786593,0 -3.57522,-0.6485 -4.880908,-1.9541 z m 31.292311,2.4288 -6.272525,6.2666 v 0.375 l 6.272525,-6.2666 1.927753,1.9277 0.187502,-0.1875 z m -20.024618,12.1055 4.139691,4.1397 4.14262,-4.1397 h -0.375004 l -3.767616,3.7647 -3.764688,-3.7647 z"
       id="path4-5-2-2"
       inkscape:connector-curvature="0" />
  </g>
</svg>
